<?xml version="1.0" encoding="UTF-8"?>
<svg width="38px" height="39px" viewBox="0 0 38 39" version="1.1" xmlns="http://www.w3.org/2000/svg" xmlns:xlink="http://www.w3.org/1999/xlink">
    <!-- Generator: Sketch 48.2 (47327) - http://www.bohemiancoding.com/sketch -->
    <title>Bitmap</title>
    <desc>Created with Sketch.</desc>
    <defs>
        <ellipse id="path-1" cx="19" cy="19.5" rx="19" ry="19.5"></ellipse>
    </defs>
    <g id="103_C-Policy-Portfolio-Several-Policies" stroke="none" stroke-width="1" fill="none" fill-rule="evenodd" transform="translate(-664.000000, -305.000000)">
        <g id="Group-2-Copy-2" transform="translate(649.000000, 289.000000)">
            <g id="Bitmap" transform="translate(15.000000, 16.000000)">
                <mask id="mask-2" fill="white">
                    <use xlink:href="#path-1"></use>
                </mask>
                <use id="Mask" fill="#D8D8D8" xlink:href="#path-1"></use>
                <g id="Icon-Profile" opacity="0.449999988" mask="url(#mask-2)" stroke="#383838" stroke-width="2">
                    <g transform="translate(8.312500, 10.968750)">
                        <ellipse id="Oval-2" cx="10.6875" cy="6.58125" rx="6.4125" ry="6.58125"></ellipse>
                        <path d="M0,26.325 C1.58663367e-16,25.4180764 1.58663367e-16,24.0781619 0,22.3052565 C0,19.6458984 2.41513469,17.55 5.00731333,17.55 C6.73543242,17.55 9.34132798,17.55 12.825,17.55" id="Path-8" stroke-linecap="round"></path>
                        <path d="M8.55,26.325 C8.55,25.4180764 8.55,24.0781619 8.55,22.3052565 C8.55,19.6458984 10.9651347,17.55 13.5573133,17.55 C15.2854324,17.55 17.891328,17.55 21.375,17.55" id="Path-8" stroke-linecap="round" transform="translate(14.962500, 21.937500) scale(-1, 1) translate(-14.962500, -21.937500) "></path>
                    </g>
                </g>
            </g>
        </g>
    </g>
</svg>